# MagicaVoxel @ Ephtracy

# group
o 

# material
mtllib printer1table.mtl
usemtl palette

# normals
vn -1 0 0
vn 1 0 0
vn 0 0 1
vn 0 0 -1
vn 0 -1 0
vn 0 1 0

# texcoords
vt 0.927734 0.5
vt 0.951172 0.5
vt 0.982422 0.5

# verts
v -0.8 0.8 0.8
v -0.8 0.8 -0.8
v -0.8 0.9 0.8
v -0.8 0.9 -0.8
v -0.3 0.6 0.7
v -0.3 0.6 0.5
v -0.3 0.6 -0.5
v -0.3 0.6 -0.7
v -0.3 0.7 0.7
v -0.3 0.7 0.6
v -0.3 0.7 0.5
v -0.3 0.7 -0.5
v -0.3 0.7 -0.6
v -0.3 0.7 -0.7
v -0.3 0.8 0.7
v -0.3 0.8 0.6
v -0.3 0.8 -0.6
v -0.3 0.8 -0.7
v 0.0999999 0.6 0.7
v 0.0999999 0.6 0.5
v 0.0999999 0.6 -0.5
v 0.0999999 0.6 -0.7
v 0.0999999 0.7 0.7
v 0.0999999 0.7 0.5
v 0.0999999 0.7 -0.5
v 0.0999999 0.7 -0.7
v 0.2 0.7 0.7
v 0.2 0.7 0.6
v 0.2 0.7 -0.6
v 0.2 0.7 -0.7
v 0.2 0.8 0.7
v 0.2 0.8 0.6
v 0.2 0.8 -0.6
v 0.2 0.8 -0.7
v -0.2 0.7 0.7
v -0.2 0.7 0.6
v -0.2 0.7 -0.6
v -0.2 0.7 -0.7
v -0.2 0.8 0.7
v -0.2 0.8 0.6
v -0.2 0.8 -0.6
v -0.2 0.8 -0.7
v -0.1 0.6 0.7
v -0.1 0.6 0.5
v -0.1 0.6 -0.5
v -0.1 0.6 -0.7
v -0.1 0.7 0.7
v -0.1 0.7 0.5
v -0.1 0.7 -0.5
v -0.1 0.7 -0.7
v 0.3 0.6 0.7
v 0.3 0.6 0.5
v 0.3 0.6 -0.5
v 0.3 0.6 -0.7
v 0.3 0.7 0.7
v 0.3 0.7 0.6
v 0.3 0.7 0.5
v 0.3 0.7 -0.5
v 0.3 0.7 -0.6
v 0.3 0.7 -0.7
v 0.3 0.8 0.7
v 0.3 0.8 0.6
v 0.3 0.8 -0.6
v 0.3 0.8 -0.7
v 0.8 0.8 0.8
v 0.8 0.8 -0.8
v 0.8 0.9 0.8
v 0.8 0.9 -0.8
v -0.8 0.8 0.8
v -0.8 0.9 0.8
v 0.8 0.8 0.8
v 0.8 0.9 0.8
v -0.3 0.6 0.7
v -0.3 0.7 0.7
v -0.3 0.8 0.7
v -0.2 0.7 0.7
v -0.2 0.8 0.7
v -0.1 0.6 0.7
v -0.1 0.7 0.7
v 0.0999999 0.6 0.7
v 0.0999999 0.7 0.7
v 0.2 0.7 0.7
v 0.2 0.8 0.7
v 0.3 0.6 0.7
v 0.3 0.7 0.7
v 0.3 0.8 0.7
v -0.3 0.6 -0.5
v -0.3 0.7 -0.5
v -0.1 0.6 -0.5
v -0.1 0.7 -0.5
v 0.0999999 0.6 -0.5
v 0.0999999 0.7 -0.5
v 0.3 0.6 -0.5
v 0.3 0.7 -0.5
v -0.3 0.7 -0.6
v -0.3 0.8 -0.6
v -0.2 0.7 -0.6
v -0.2 0.8 -0.6
v 0.2 0.7 -0.6
v 0.2 0.8 -0.6
v 0.3 0.7 -0.6
v 0.3 0.8 -0.6
v -0.3 0.7 0.6
v -0.3 0.8 0.6
v -0.2 0.7 0.6
v -0.2 0.8 0.6
v 0.2 0.7 0.6
v 0.2 0.8 0.6
v 0.3 0.7 0.6
v 0.3 0.8 0.6
v -0.3 0.6 0.5
v -0.3 0.7 0.5
v -0.1 0.6 0.5
v -0.1 0.7 0.5
v 0.0999999 0.6 0.5
v 0.0999999 0.7 0.5
v 0.3 0.6 0.5
v 0.3 0.7 0.5
v -0.3 0.6 -0.7
v -0.3 0.7 -0.7
v -0.3 0.8 -0.7
v -0.2 0.7 -0.7
v -0.2 0.8 -0.7
v -0.1 0.6 -0.7
v -0.1 0.7 -0.7
v 0.0999999 0.6 -0.7
v 0.0999999 0.7 -0.7
v 0.2 0.7 -0.7
v 0.2 0.8 -0.7
v 0.3 0.6 -0.7
v 0.3 0.7 -0.7
v 0.3 0.8 -0.7
v -0.8 0.8 -0.8
v -0.8 0.9 -0.8
v 0.8 0.8 -0.8
v 0.8 0.9 -0.8
v -0.3 0.6 0.7
v -0.1 0.6 0.7
v 0.0999999 0.6 0.7
v 0.3 0.6 0.7
v -0.3 0.6 0.5
v -0.1 0.6 0.5
v 0.0999999 0.6 0.5
v 0.3 0.6 0.5
v -0.3 0.6 -0.5
v -0.1 0.6 -0.5
v 0.0999999 0.6 -0.5
v 0.3 0.6 -0.5
v -0.3 0.6 -0.7
v -0.1 0.6 -0.7
v 0.0999999 0.6 -0.7
v 0.3 0.6 -0.7
v -0.8 0.8 0.8
v 0.8 0.8 0.8
v -0.3 0.8 0.7
v -0.2 0.8 0.7
v 0.2 0.8 0.7
v 0.3 0.8 0.7
v -0.3 0.8 0.6
v -0.2 0.8 0.6
v 0.2 0.8 0.6
v 0.3 0.8 0.6
v -0.3 0.8 -0.6
v -0.2 0.8 -0.6
v 0.2 0.8 -0.6
v 0.3 0.8 -0.6
v -0.3 0.8 -0.7
v -0.2 0.8 -0.7
v 0.2 0.8 -0.7
v 0.3 0.8 -0.7
v -0.8 0.8 -0.8
v 0.8 0.8 -0.8
v -0.2 0.7 0.7
v -0.1 0.7 0.7
v 0.0999999 0.7 0.7
v 0.2 0.7 0.7
v -0.3 0.7 0.6
v -0.2 0.7 0.6
v 0.2 0.7 0.6
v 0.3 0.7 0.6
v -0.3 0.7 0.5
v -0.1 0.7 0.5
v 0.0999999 0.7 0.5
v 0.3 0.7 0.5
v -0.3 0.7 -0.5
v -0.1 0.7 -0.5
v 0.0999999 0.7 -0.5
v 0.3 0.7 -0.5
v -0.3 0.7 -0.6
v -0.2 0.7 -0.6
v 0.2 0.7 -0.6
v 0.3 0.7 -0.6
v -0.2 0.7 -0.7
v -0.1 0.7 -0.7
v 0.0999999 0.7 -0.7
v 0.2 0.7 -0.7
v -0.8 0.9 0.8
v 0.8 0.9 0.8
v -0.8 0.9 -0.8
v 0.8 0.9 -0.8

# faces
f 3/1/1 2/1/1 1/1/1
f 4/1/1 2/1/1 3/1/1
f 9/3/1 6/3/1 5/3/1
f 10/3/1 6/3/1 9/3/1
f 11/3/1 6/3/1 10/3/1
f 12/3/1 8/3/1 7/3/1
f 13/3/1 8/3/1 12/3/1
f 14/3/1 8/3/1 13/3/1
f 15/2/1 10/2/1 9/2/1
f 16/2/1 10/2/1 15/2/1
f 17/2/1 14/2/1 13/2/1
f 18/2/1 14/2/1 17/2/1
f 23/3/1 20/3/1 19/3/1
f 24/3/1 20/3/1 23/3/1
f 25/3/1 22/3/1 21/3/1
f 26/3/1 22/3/1 25/3/1
f 31/2/1 28/2/1 27/2/1
f 32/2/1 28/2/1 31/2/1
f 33/2/1 30/2/1 29/2/1
f 34/2/1 30/2/1 33/2/1
f 35/2/2 36/2/2 39/2/2
f 39/2/2 36/2/2 40/2/2
f 37/2/2 38/2/2 41/2/2
f 41/2/2 38/2/2 42/2/2
f 43/3/2 44/3/2 47/3/2
f 47/3/2 44/3/2 48/3/2
f 45/3/2 46/3/2 49/3/2
f 49/3/2 46/3/2 50/3/2
f 51/3/2 52/3/2 55/3/2
f 55/3/2 52/3/2 56/3/2
f 56/3/2 52/3/2 57/3/2
f 53/3/2 54/3/2 58/3/2
f 58/3/2 54/3/2 59/3/2
f 59/3/2 54/3/2 60/3/2
f 55/2/2 56/2/2 61/2/2
f 61/2/2 56/2/2 62/2/2
f 59/2/2 60/2/2 63/2/2
f 63/2/2 60/2/2 64/2/2
f 65/1/2 66/1/2 67/1/2
f 67/1/2 66/1/2 68/1/2
f 71/1/3 70/1/3 69/1/3
f 72/1/3 70/1/3 71/1/3
f 76/3/3 74/3/3 73/3/3
f 76/2/3 75/2/3 74/2/3
f 77/2/3 75/2/3 76/2/3
f 78/3/3 76/3/3 73/3/3
f 79/3/3 76/3/3 78/3/3
f 82/3/3 81/3/3 80/3/3
f 84/3/3 82/3/3 80/3/3
f 85/2/3 83/2/3 82/2/3
f 85/3/3 82/3/3 84/3/3
f 86/2/3 83/2/3 85/2/3
f 89/3/3 88/3/3 87/3/3
f 90/3/3 88/3/3 89/3/3
f 93/3/3 92/3/3 91/3/3
f 94/3/3 92/3/3 93/3/3
f 97/2/3 96/2/3 95/2/3
f 98/2/3 96/2/3 97/2/3
f 101/2/3 100/2/3 99/2/3
f 102/2/3 100/2/3 101/2/3
f 103/2/4 104/2/4 105/2/4
f 105/2/4 104/2/4 106/2/4
f 107/2/4 108/2/4 109/2/4
f 109/2/4 108/2/4 110/2/4
f 111/3/4 112/3/4 113/3/4
f 113/3/4 112/3/4 114/3/4
f 115/3/4 116/3/4 117/3/4
f 117/3/4 116/3/4 118/3/4
f 119/3/4 120/3/4 122/3/4
f 120/2/4 121/2/4 122/2/4
f 122/2/4 121/2/4 123/2/4
f 119/3/4 122/3/4 124/3/4
f 124/3/4 122/3/4 125/3/4
f 126/3/4 127/3/4 128/3/4
f 126/3/4 128/3/4 130/3/4
f 128/2/4 129/2/4 131/2/4
f 130/3/4 128/3/4 131/3/4
f 131/2/4 129/2/4 132/2/4
f 133/1/4 134/1/4 135/1/4
f 135/1/4 134/1/4 136/1/4
f 141/3/5 138/3/5 137/3/5
f 142/3/5 138/3/5 141/3/5
f 143/3/5 140/3/5 139/3/5
f 144/3/5 140/3/5 143/3/5
f 149/3/5 146/3/5 145/3/5
f 150/3/5 146/3/5 149/3/5
f 151/3/5 148/3/5 147/3/5
f 152/3/5 148/3/5 151/3/5
f 155/1/5 154/1/5 153/1/5
f 156/1/5 154/1/5 155/1/5
f 157/1/5 154/1/5 156/1/5
f 158/1/5 154/1/5 157/1/5
f 159/1/5 155/1/5 153/1/5
f 160/1/5 157/1/5 156/1/5
f 161/1/5 157/1/5 160/1/5
f 162/1/5 154/1/5 158/1/5
f 163/1/5 161/1/5 160/1/5
f 163/1/5 162/1/5 161/1/5
f 163/1/5 159/1/5 153/1/5
f 163/1/5 160/1/5 159/1/5
f 164/1/5 162/1/5 163/1/5
f 165/1/5 162/1/5 164/1/5
f 166/1/5 154/1/5 162/1/5
f 166/1/5 162/1/5 165/1/5
f 167/1/5 163/1/5 153/1/5
f 168/1/5 165/1/5 164/1/5
f 169/1/5 165/1/5 168/1/5
f 170/1/5 154/1/5 166/1/5
f 171/1/5 167/1/5 153/1/5
f 171/1/5 170/1/5 169/1/5
f 171/1/5 169/1/5 168/1/5
f 171/1/5 168/1/5 167/1/5
f 172/1/5 154/1/5 170/1/5
f 172/1/5 170/1/5 171/1/5
f 173/3/6 174/3/6 178/3/6
f 175/3/6 176/3/6 179/3/6
f 177/3/6 178/3/6 181/3/6
f 178/3/6 174/3/6 182/3/6
f 181/3/6 178/3/6 182/3/6
f 179/3/6 180/3/6 183/3/6
f 175/3/6 179/3/6 183/3/6
f 183/3/6 180/3/6 184/3/6
f 185/3/6 186/3/6 189/3/6
f 189/3/6 186/3/6 190/3/6
f 187/3/6 188/3/6 191/3/6
f 191/3/6 188/3/6 192/3/6
f 190/3/6 186/3/6 193/3/6
f 193/3/6 186/3/6 194/3/6
f 187/3/6 191/3/6 195/3/6
f 195/3/6 191/3/6 196/3/6
f 197/1/6 198/1/6 199/1/6
f 199/1/6 198/1/6 200/1/6
