# MagicaVoxel @ Ephtracy

# group
o 

# material
mtllib printer1slider.mtl
usemtl palette

# normals
vn -1 0 0
vn 1 0 0
vn 0 0 1
vn 0 0 -1
vn 0 -1 0
vn 0 1 0

# texcoords
vt 0.880859 0.5
vt 0.927734 0.5
vt 0.955078 0.5
vt 0.958984 0.5
vt 0.962891 0.5
vt 0.970703 0.5
vt 0.982422 0.5

# verts
v -1.3 1.5 0.3
v -1.3 1.5 0.2
v -1.3 1.5 -0.0999999
v -1.3 1.5 -0.3
v -1.3 1.6 -0.0999999
v -1.3 1.6 -0.2
v -1.3 1.8 -0.0999999
v -1.3 1.8 -0.2
v -1.3 1.9 0.3
v -1.3 1.9 0.2
v -1.3 1.9 -0.0999999
v -1.3 1.9 -0.3
v -1 1.5 0.2
v -1 1.5 -0.0999999
v -1 1.6 0.1
v -1 1.6 -0.0999999
v -1 1.7 0.2
v -1 1.7 0.1
v -1 1.7 5.96046e-008
v -1 1.7 -0.0999999
v -1 1.8 0.1
v -1 1.8 5.96046e-008
v -1 1.8 -0.0999999
v 0.8 1.6 0.5
v 0.8 1.6 0.2
v 0.8 1.7 0.3
v 0.8 1.7 0.2
v 0.8 1.8 0.3
v 0.8 1.8 0.2
v 0.8 1.9 0.5
v 0.8 1.9 0.2
v 1.1 1.6 -0.0999999
v 1.1 1.6 -0.2
v 1.1 1.6 -0.3
v 1.1 1.8 -0.0999999
v 1.1 1.8 -0.2
v 1.1 1.8 -0.3
v 1.2 1.6 0.4
v 1.2 1.6 0.3
v 1.2 1.7 0.4
v 1.2 1.7 0.3
v -1.2 1.8 0.3
v -1.2 1.8 0.2
v -1.2 1.8 -0.0999999
v -1.2 1.8 -0.3
v -1.2 1.9 0.3
v -1.2 1.9 0.2
v -1.2 1.9 -0.0999999
v -1.2 1.9 -0.3
v -1 1.7 0.3
v -1 1.7 0.2
v -1 1.7 -0.2
v -1 1.7 -0.3
v -1 1.8 0.3
v -1 1.8 0.2
v -1 1.8 -0.2
v -1 1.8 -0.3
v -0.9 1.6 0.3
v -0.9 1.6 0.1
v -0.9 1.6 -0.2
v -0.9 1.6 -0.3
v -0.9 1.7 0.3
v -0.9 1.7 0.1
v -0.9 1.7 -0.2
v -0.9 1.7 -0.3
v -0.8 1.5 0.3
v -0.8 1.5 0.1
v -0.8 1.5 -0.2
v -0.8 1.5 -0.3
v -0.8 1.6 0.3
v -0.8 1.6 0.1
v -0.8 1.6 -0.2
v -0.8 1.6 -0.3
v 1 1.5 0.1
v 1 1.5 5.96046e-008
v 1 1.5 -0.0999999
v 1 1.5 -0.2
v 1 1.6 0.1
v 1 1.6 5.96046e-008
v 1 1.6 -0.0999999
v 1 1.6 -0.2
v 1 1.7 0.1
v 1 1.7 5.96046e-008
v 1 1.7 -0.0999999
v 1 1.7 -0.2
v 1 1.8 0.1
v 1 1.8 5.96046e-008
v 1 1.8 -0.0999999
v 1 1.8 -0.2
v 1.1 1.6 0.4
v 1.1 1.6 0.3
v 1.1 1.7 0.5
v 1.1 1.7 0.4
v 1.1 1.7 0.3
v 1.1 1.7 0.2
v 1.1 1.8 0.3
v 1.1 1.8 0.2
v 1.1 1.9 0.5
v 1.1 1.9 0.2
v 1.3 1.6 0.5
v 1.3 1.6 0.2
v 1.3 1.6 -0.0999999
v 1.3 1.6 -0.2
v 1.3 1.6 -0.3
v 1.3 1.7 0.5
v 1.3 1.7 0.2
v 1.3 1.8 -0.0999999
v 1.3 1.8 -0.2
v 1.3 1.8 -0.3
v 0.8 1.6 0.5
v 0.8 1.9 0.5
v 1.1 1.6 0.5
v 1.1 1.7 0.5
v 1.1 1.9 0.5
v 1.3 1.6 0.5
v 1.3 1.7 0.5
v -1.3 1.5 0.3
v -1.3 1.9 0.3
v -1.2 1.8 0.3
v -1.2 1.9 0.3
v -1 1.7 0.3
v -1 1.8 0.3
v -0.9 1.6 0.3
v -0.9 1.7 0.3
v -0.8 1.5 0.3
v -0.8 1.6 0.3
v 1.1 1.6 0.3
v 1.1 1.7 0.3
v 1.2 1.6 0.3
v 1.2 1.7 0.3
v -1 1.7 0.1
v -1 1.8 0.1
v -0.9 1.6 0.1
v -0.9 1.7 0.1
v -0.8 1.5 0.1
v -0.8 1.6 0.1
v 1 1.5 0.1
v 1 1.6 0.1
v 1 1.7 0.1
v 1 1.8 0.1
v -1.3 1.5 -0.0999999
v -1.3 1.6 -0.0999999
v -1.3 1.8 -0.0999999
v -1.3 1.9 -0.0999999
v -1.2 1.7 -0.0999999
v -1.2 1.8 -0.0999999
v -1.2 1.9 -0.0999999
v -1 1.5 -0.0999999
v -1 1.6 -0.0999999
v -1 1.7 -0.0999999
v -1 1.8 -0.0999999
v 1.1 1.6 -0.0999999
v 1.1 1.8 -0.0999999
v 1.3 1.6 -0.0999999
v 1.3 1.8 -0.0999999
v 1.1 1.6 0.4
v 1.1 1.7 0.4
v 1.2 1.6 0.4
v 1.2 1.7 0.4
v -1.3 1.5 0.2
v -1.3 1.9 0.2
v -1.2 1.8 0.2
v -1.2 1.9 0.2
v -1 1.5 0.2
v -1 1.7 0.2
v -1 1.8 0.2
v 0.8 1.6 0.2
v 0.8 1.7 0.2
v 0.8 1.8 0.2
v 0.8 1.9 0.2
v 0.9 1.7 0.2
v 0.9 1.8 0.2
v 1 1.7 0.2
v 1 1.8 0.2
v 1.1 1.6 0.2
v 1.1 1.7 0.2
v 1.1 1.8 0.2
v 1.1 1.9 0.2
v 1.3 1.6 0.2
v 1.3 1.7 0.2
v -1 1.7 -0.2
v -1 1.8 -0.2
v -0.9 1.6 -0.2
v -0.9 1.7 -0.2
v -0.8 1.5 -0.2
v -0.8 1.6 -0.2
v 1 1.5 -0.2
v 1 1.6 -0.2
v 1 1.7 -0.2
v 1 1.8 -0.2
v -1.3 1.5 -0.3
v -1.3 1.9 -0.3
v -1.2 1.8 -0.3
v -1.2 1.9 -0.3
v -1 1.7 -0.3
v -1 1.8 -0.3
v -0.9 1.6 -0.3
v -0.9 1.7 -0.3
v -0.8 1.5 -0.3
v -0.8 1.6 -0.3
v 1.1 1.6 -0.3
v 1.1 1.8 -0.3
v 1.3 1.6 -0.3
v 1.3 1.8 -0.3
v -1.3 1.5 0.3
v -0.8 1.5 0.3
v -1.3 1.5 0.2
v -1 1.5 0.2
v -0.8 1.5 0.1
v 1 1.5 0.1
v -0.8 1.5 5.96046e-008
v 1 1.5 5.96046e-008
v -1.3 1.5 -0.0999999
v -1 1.5 -0.0999999
v -0.8 1.5 -0.0999999
v 1 1.5 -0.0999999
v -0.8 1.5 -0.2
v 1 1.5 -0.2
v -1.3 1.5 -0.3
v -0.8 1.5 -0.3
v 0.8 1.6 0.5
v 1.1 1.6 0.5
v 1.3 1.6 0.5
v 1.1 1.6 0.4
v 1.2 1.6 0.4
v 1.1 1.6 0.3
v 1.2 1.6 0.3
v 0.8 1.6 0.2
v 1.1 1.6 0.2
v 1.3 1.6 0.2
v 1.1 1.6 -0.0999999
v 1.3 1.6 -0.0999999
v 1.1 1.6 -0.2
v 1.3 1.6 -0.2
v 1.1 1.6 -0.3
v 1.3 1.6 -0.3
v -0.9 1.6 0.3
v -0.8 1.6 0.3
v -0.9 1.6 0.1
v -0.8 1.6 0.1
v -0.9 1.6 -0.2
v -0.8 1.6 -0.2
v -0.9 1.6 -0.3
v -0.8 1.6 -0.3
v 1.1 1.7 0.5
v 1.3 1.7 0.5
v 1.1 1.7 0.4
v 1.2 1.7 0.4
v -1 1.7 0.3
v -0.9 1.7 0.3
v 1.1 1.7 0.3
v 1.2 1.7 0.3
v -1 1.7 0.2
v 1.1 1.7 0.2
v 1.3 1.7 0.2
v -1 1.7 0.1
v -0.9 1.7 0.1
v -1 1.7 -0.2
v -0.9 1.7 -0.2
v -1 1.7 -0.3
v -0.9 1.7 -0.3
v -1.2 1.8 0.3
v -1 1.8 0.3
v -1.2 1.8 0.2
v -1 1.8 0.2
v -1 1.8 0.1
v 1 1.8 0.1
v -1 1.8 5.96046e-008
v 1 1.8 5.96046e-008
v -1.2 1.8 -0.0999999
v -1 1.8 -0.0999999
v 1 1.8 -0.0999999
v 1.1 1.8 -0.0999999
v 1.3 1.8 -0.0999999
v -1 1.8 -0.2
v 1 1.8 -0.2
v 1.1 1.8 -0.2
v 1.3 1.8 -0.2
v -1.2 1.8 -0.3
v -1 1.8 -0.3
v 1.1 1.8 -0.3
v 1.3 1.8 -0.3
v 0.8 1.9 0.5
v 1.1 1.9 0.5
v -1.3 1.9 0.3
v -1.2 1.9 0.3
v -1.3 1.9 0.2
v -1.2 1.9 0.2
v 0.8 1.9 0.2
v 1.1 1.9 0.2
v -1.3 1.9 -0.0999999
v -1.2 1.9 -0.0999999
v -1.3 1.9 -0.3
v -1.2 1.9 -0.3

# faces
f 5/1/1 4/1/1 3/1/1
f 6/1/1 4/1/1 5/1/1
f 7/3/1 6/3/1 5/3/1
f 8/1/1 4/1/1 6/1/1
f 8/3/1 6/3/1 7/3/1
f 9/1/1 2/1/1 1/1/1
f 10/1/1 2/1/1 9/1/1
f 11/1/1 8/1/1 7/1/1
f 12/1/1 4/1/1 8/1/1
f 12/1/1 8/1/1 11/1/1
f 15/1/1 14/1/1 13/1/1
f 16/1/1 14/1/1 15/1/1
f 17/1/1 15/1/1 13/1/1
f 18/3/1 16/3/1 15/3/1
f 18/1/1 15/1/1 17/1/1
f 19/3/1 16/3/1 18/3/1
f 20/3/1 16/3/1 19/3/1
f 21/3/1 19/3/1 18/3/1
f 22/6/1 20/6/1 19/6/1
f 22/3/1 19/3/1 21/3/1
f 23/6/1 20/6/1 22/6/1
f 26/5/1 25/5/1 24/5/1
f 27/5/1 25/5/1 26/5/1
f 28/5/1 26/5/1 24/5/1
f 28/2/1 27/2/1 26/2/1
f 29/2/1 27/2/1 28/2/1
f 30/5/1 28/5/1 24/5/1
f 30/5/1 29/5/1 28/5/1
f 31/5/1 29/5/1 30/5/1
f 35/3/1 33/3/1 32/3/1
f 36/7/1 34/7/1 33/7/1
f 36/3/1 33/3/1 35/3/1
f 37/7/1 34/7/1 36/7/1
f 40/4/1 39/4/1 38/4/1
f 41/4/1 39/4/1 40/4/1
f 42/1/2 43/1/2 46/1/2
f 46/1/2 43/1/2 47/1/2
f 44/1/2 45/1/2 48/1/2
f 48/1/2 45/1/2 49/1/2
f 50/1/2 51/1/2 54/1/2
f 54/1/2 51/1/2 55/1/2
f 52/1/2 53/1/2 56/1/2
f 56/1/2 53/1/2 57/1/2
f 58/1/2 59/1/2 62/1/2
f 62/1/2 59/1/2 63/1/2
f 60/1/2 61/1/2 64/1/2
f 64/1/2 61/1/2 65/1/2
f 66/1/2 67/1/2 70/1/2
f 70/1/2 67/1/2 71/1/2
f 68/1/2 69/1/2 72/1/2
f 72/1/2 69/1/2 73/1/2
f 74/3/2 75/3/2 78/3/2
f 75/6/2 76/6/2 79/6/2
f 78/3/2 75/3/2 79/3/2
f 76/3/2 77/3/2 80/3/2
f 79/6/2 76/6/2 80/6/2
f 80/3/2 77/3/2 81/3/2
f 78/6/2 79/6/2 82/6/2
f 79/3/2 80/3/2 83/3/2
f 82/6/2 79/6/2 83/6/2
f 80/6/2 81/6/2 84/6/2
f 83/3/2 80/3/2 84/3/2
f 84/6/2 81/6/2 85/6/2
f 82/3/2 83/3/2 86/3/2
f 83/6/2 84/6/2 87/6/2
f 86/3/2 83/3/2 87/3/2
f 84/3/2 85/3/2 88/3/2
f 87/6/2 84/6/2 88/6/2
f 88/3/2 85/3/2 89/3/2
f 90/5/2 91/5/2 93/5/2
f 93/5/2 91/5/2 94/5/2
f 92/5/2 93/5/2 96/5/2
f 94/2/2 95/2/2 96/2/2
f 93/5/2 94/5/2 96/5/2
f 96/2/2 95/2/2 97/2/2
f 92/5/2 96/5/2 98/5/2
f 96/5/2 97/5/2 98/5/2
f 98/5/2 97/5/2 99/5/2
f 100/4/2 101/4/2 105/4/2
f 105/4/2 101/4/2 106/4/2
f 102/3/2 103/3/2 107/3/2
f 103/7/2 104/7/2 108/7/2
f 107/3/2 103/3/2 108/3/2
f 108/7/2 104/7/2 109/7/2
f 112/5/3 111/5/3 110/5/3
f 113/5/3 111/5/3 112/5/3
f 114/5/3 111/5/3 113/5/3
f 115/4/3 113/4/3 112/4/3
f 116/4/3 113/4/3 115/4/3
f 119/1/3 118/1/3 117/1/3
f 120/1/3 118/1/3 119/1/3
f 121/1/3 119/1/3 117/1/3
f 122/1/3 119/1/3 121/1/3
f 123/1/3 121/1/3 117/1/3
f 124/1/3 121/1/3 123/1/3
f 125/1/3 123/1/3 117/1/3
f 126/1/3 123/1/3 125/1/3
f 129/4/3 128/4/3 127/4/3
f 130/4/3 128/4/3 129/4/3
f 134/3/3 132/3/3 131/3/3
f 136/6/3 134/6/3 133/6/3
f 137/3/3 136/3/3 135/3/3
f 138/6/3 134/6/3 136/6/3
f 138/3/3 136/3/3 137/3/3
f 139/3/3 132/3/3 134/3/3
f 139/6/3 134/6/3 138/6/3
f 140/3/3 132/3/3 139/3/3
f 145/3/3 143/3/3 142/3/3
f 146/1/3 144/1/3 143/1/3
f 146/3/3 143/3/3 145/3/3
f 147/1/3 144/1/3 146/1/3
f 148/1/3 142/1/3 141/1/3
f 149/3/3 145/3/3 142/3/3
f 149/1/3 142/1/3 148/1/3
f 150/1/3 146/1/3 145/1/3
f 150/3/3 145/3/3 149/3/3
f 151/1/3 146/1/3 150/1/3
f 154/3/3 153/3/3 152/3/3
f 155/3/3 153/3/3 154/3/3
f 156/4/4 157/4/4 158/4/4
f 158/4/4 157/4/4 159/4/4
f 160/1/4 161/1/4 162/1/4
f 162/1/4 161/1/4 163/1/4
f 160/1/4 162/1/4 164/1/4
f 164/1/4 162/1/4 165/1/4
f 165/1/4 162/1/4 166/1/4
f 168/2/4 169/2/4 171/2/4
f 167/5/4 168/5/4 171/5/4
f 169/5/4 170/5/4 172/5/4
f 171/2/4 169/2/4 172/2/4
f 167/5/4 171/5/4 173/5/4
f 171/5/4 172/5/4 173/5/4
f 172/5/4 170/5/4 174/5/4
f 173/5/4 172/5/4 174/5/4
f 167/5/4 173/5/4 175/5/4
f 173/2/4 174/2/4 176/2/4
f 175/5/4 173/5/4 176/5/4
f 174/5/4 170/5/4 177/5/4
f 176/2/4 174/2/4 177/2/4
f 177/5/4 170/5/4 178/5/4
f 175/4/4 176/4/4 179/4/4
f 179/4/4 176/4/4 180/4/4
f 181/3/4 182/3/4 184/3/4
f 183/6/4 184/6/4 186/6/4
f 185/3/4 186/3/4 187/3/4
f 186/6/4 184/6/4 188/6/4
f 187/3/4 186/3/4 188/3/4
f 184/3/4 182/3/4 189/3/4
f 188/6/4 184/6/4 189/6/4
f 189/3/4 182/3/4 190/3/4
f 191/1/4 192/1/4 193/1/4
f 193/1/4 192/1/4 194/1/4
f 191/1/4 193/1/4 195/1/4
f 195/1/4 193/1/4 196/1/4
f 191/1/4 195/1/4 197/1/4
f 197/1/4 195/1/4 198/1/4
f 191/1/4 197/1/4 199/1/4
f 199/1/4 197/1/4 200/1/4
f 201/7/4 202/7/4 203/7/4
f 203/7/4 202/7/4 204/7/4
f 207/1/5 206/1/5 205/1/5
f 208/1/5 206/1/5 207/1/5
f 209/1/5 206/1/5 208/1/5
f 211/1/5 209/1/5 208/1/5
f 211/3/5 210/3/5 209/3/5
f 212/3/5 210/3/5 211/3/5
f 214/1/5 211/1/5 208/1/5
f 215/6/5 212/6/5 211/6/5
f 215/1/5 211/1/5 214/1/5
f 216/6/5 212/6/5 215/6/5
f 217/1/5 214/1/5 213/1/5
f 217/1/5 215/1/5 214/1/5
f 217/3/5 216/3/5 215/3/5
f 218/3/5 216/3/5 217/3/5
f 219/1/5 217/1/5 213/1/5
f 220/1/5 217/1/5 219/1/5
f 224/5/5 222/5/5 221/5/5
f 224/4/5 223/4/5 222/4/5
f 225/4/5 223/4/5 224/4/5
f 226/5/5 224/5/5 221/5/5
f 227/4/5 223/4/5 225/4/5
f 228/5/5 226/5/5 221/5/5
f 229/4/5 227/4/5 226/4/5
f 229/5/5 226/5/5 228/5/5
f 230/4/5 223/4/5 227/4/5
f 230/4/5 227/4/5 229/4/5
f 233/3/5 232/3/5 231/3/5
f 234/3/5 232/3/5 233/3/5
f 235/7/5 234/7/5 233/7/5
f 236/7/5 234/7/5 235/7/5
f 237/1/6 238/1/6 239/1/6
f 239/1/6 238/1/6 240/1/6
f 241/1/6 242/1/6 243/1/6
f 243/1/6 242/1/6 244/1/6
f 245/4/6 246/4/6 247/4/6
f 247/4/6 246/4/6 248/4/6
f 248/4/6 246/4/6 252/4/6
f 249/1/6 250/1/6 253/1/6
f 251/4/6 252/4/6 254/4/6
f 252/4/6 246/4/6 255/4/6
f 254/4/6 252/4/6 255/4/6
f 253/1/6 250/1/6 256/1/6
f 256/1/6 250/1/6 257/1/6
f 258/1/6 259/1/6 260/1/6
f 260/1/6 259/1/6 261/1/6
f 262/1/6 263/1/6 264/1/6
f 264/1/6 263/1/6 265/1/6
f 266/3/6 267/3/6 268/3/6
f 268/3/6 267/3/6 269/3/6
f 268/6/6 269/6/6 271/6/6
f 271/6/6 269/6/6 272/6/6
f 271/3/6 272/3/6 275/3/6
f 270/1/6 271/1/6 275/1/6
f 275/3/6 272/3/6 276/3/6
f 273/3/6 274/3/6 277/3/6
f 277/3/6 274/3/6 278/3/6
f 270/1/6 275/1/6 279/1/6
f 279/1/6 275/1/6 280/1/6
f 277/7/6 278/7/6 281/7/6
f 281/7/6 278/7/6 282/7/6
f 285/1/6 286/1/6 287/1/6
f 287/1/6 286/1/6 288/1/6
f 283/5/6 284/5/6 289/5/6
f 289/5/6 284/5/6 290/5/6
f 291/1/6 292/1/6 293/1/6
f 293/1/6 292/1/6 294/1/6
